<svg class="e-font-icon-svg e-eicon-basket-solid" viewBox="0 0 1000 1000" xmlns="http://www.w3.org/2000/svg"><path d="M128 417H63C51 417 42 407 42 396S51 375 63 375H256L324 172C332 145 358 125 387 125H655C685 125 711 145 718 173L786 375H979C991 375 1000 384 1000 396S991 417 979 417H913L853 793C843 829 810 854 772 854H270C233 854 200 829 190 793L128 417ZM742 375L679 185C676 174 666 167 655 167H387C376 167 367 174 364 184L300 375H742ZM500 521V729C500 741 509 750 521 750S542 741 542 729V521C542 509 533 500 521 500S500 509 500 521ZM687 732L717 526C718 515 710 504 699 502 688 500 677 508 675 520L646 726C644 737 652 748 663 750 675 751 686 743 687 732ZM395 726L366 520C364 509 354 501 342 502 331 504 323 515 325 526L354 732C356 744 366 752 378 750 389 748 397 737 395 726Z"></path></svg>